<?xml version="1.0" encoding="UTF-8" standalone="no"?>
<!-- Created with Inkscape (http://www.inkscape.org/) -->

<svg
   xmlns:dc="http://purl.org/dc/elements/1.1/"
   xmlns:cc="http://creativecommons.org/ns#"
   xmlns:rdf="http://www.w3.org/1999/02/22-rdf-syntax-ns#"
   xmlns:svg="http://www.w3.org/2000/svg"
   xmlns="http://www.w3.org/2000/svg"
   xmlns:sodipodi="http://sodipodi.sourceforge.net/DTD/sodipodi-0.dtd"
   xmlns:inkscape="http://www.inkscape.org/namespaces/inkscape"
   width="210mm"
   height="297mm"
   viewBox="0 0 210 297"
   version="1.1"
   id="svg6003"
   inkscape:version="0.92.4 (5da689c313, 2019-01-14)"
   sodipodi:docname="seme_nasin.svg"
   inkscape:export-filename="C:\Users\Anthony\Documents\RPGVXAce\seme nasin\Graphics\System\seme_nasin.png"
   inkscape:export-xdpi="96"
   inkscape:export-ydpi="96">
  <defs
     id="defs5997" />
  <sodipodi:namedview
     id="base"
     pagecolor="#ffffff"
     bordercolor="#666666"
     borderopacity="1.0"
     inkscape:pageopacity="0.0"
     inkscape:pageshadow="2"
     inkscape:zoom="0.35"
     inkscape:cx="-28.571429"
     inkscape:cy="560"
     inkscape:document-units="mm"
     inkscape:current-layer="layer1"
     showgrid="false"
     inkscape:window-width="1920"
     inkscape:window-height="1017"
     inkscape:window-x="-8"
     inkscape:window-y="-8"
     inkscape:window-maximized="1" />
  <metadata
     id="metadata6000">
    <rdf:RDF>
      <cc:Work
         rdf:about="">
        <dc:format>image/svg+xml</dc:format>
        <dc:type
           rdf:resource="http://purl.org/dc/dcmitype/StillImage" />
        <dc:title></dc:title>
      </cc:Work>
    </rdf:RDF>
  </metadata>
  <g
     inkscape:label="Layer 1"
     inkscape:groupmode="layer"
     id="layer1">
    <g
       data-name="Layer 2"
       id="Layer_2-70"
       transform="matrix(9.2533294,0,0,14.168223,1.0413284,1.7337614)">
      <g
         data-name="Layer 1"
         id="Layer_1-2-4">
        <path
           id="path4196"
           d="M 0,6 C 0,3.9 1.65,2.52 3.21,1.65 A 15.11,15.11 0 0 1 10.35,0 c 3.9,0 7.65,1.23 9.42,3.48 A 4.07,4.07 0 0 1 20.7,6 c 0,3.36 -4.26,5.07 -7,5.61 a 0.1,0.1 0 0 0 -0.06,0 c -1.5,0.33 -2.58,1.05 -2.58,1.77 v 2.37 H 9.6 v -2.37 c 0,-1.83 2,-2.91 3.81,-3.27 H 13.5 C 15.33,9.75 19.2,8.34 19.2,5.97 A 2.55,2.55 0 0 0 18.6,4.41 C 16.89,2.22 12.93,1.5 10.35,1.5 A 13.83,13.83 0 0 0 3.9,2.94 c -1.08,0.57 -2.4,1.68 -2.4,3 0,1.32 1.44,2.55 2.58,3.12 v 0 L 3.3,10.38 C 1.71,9.54 0,8.1 0,6 Z m 10.35,14.76 a 1.55,1.55 0 0 1 -1.56,-1.56 1.56,1.56 0 0 1 3.12,0 1.55,1.55 0 0 1 -1.56,1.56 z"
           inkscape:connector-curvature="0" />
      </g>
    </g>
    <g
       data-name="Layer 2"
       id="Layer_2-83"
       transform="matrix(12.272175,0,0,14.816667,-0.01417306,-0.46726912)">
      <g
         data-name="Layer 1"
         id="Layer_1-2-58">
        <path
           id="path4601"
           d="M 16.23,13.59 9.36,7.26 V 20 H 7.89 V 7.26 L 1,13.59 0,12.51 7.89,5.22 V 0 h 1.47 v 5.22 l 7.89,7.29 z"
           inkscape:connector-curvature="0" />
      </g>
    </g>
  </g>
</svg>
